<svg xmlns="http://www.w3.org/2000/svg" width="20" height="20" viewBox="0 0 16 16" fill="none"><path fill-rule="evenodd" clip-rule="evenodd" d="M4.66683 3.99998C4.66683 3.63179 4.96531 3.33331 5.3335 3.33331H12.0002C12.3684 3.33331 12.6668 3.63179 12.6668 3.99998C12.6668 4.36817 12.3684 4.66665 12.0002 4.66665H5.3335C4.96531 4.66665 4.66683 4.36817 4.66683 3.99998Z" fill="currentColor"></path><path fill-rule="evenodd" clip-rule="evenodd" d="M4.66683 7.99998C4.66683 7.63179 4.96531 7.33331 5.3335 7.33331H14.0002C14.3684 7.33331 14.6668 7.63179 14.6668 7.99998C14.6668 8.36817 14.3684 8.66665 14.0002 8.66665H5.3335C4.96531 8.66665 4.66683 8.36817 4.66683 7.99998Z" fill="currentColor"></path><path fill-rule="evenodd" clip-rule="evenodd" d="M4.66683 12C4.66683 11.6318 4.96531 11.3333 5.3335 11.3333H9.3335C9.70169 11.3333 10.0002 11.6318 10.0002 12C10.0002 12.3682 9.70169 12.6666 9.3335 12.6666H5.3335C4.96531 12.6666 4.66683 12.3682 4.66683 12Z" fill="currentColor"></path><path d="M2.66683 3.99998C2.66683 4.36817 2.36835 4.66665 2.00016 4.66665C1.63197 4.66665 1.3335 4.36817 1.3335 3.99998C1.3335 3.63179 1.63197 3.33331 2.00016 3.33331C2.36835 3.33331 2.66683 3.63179 2.66683 3.99998Z" fill="currentColor"></path><path d="M2.66683 7.99998C2.66683 8.36817 2.36835 8.66665 2.00016 8.66665C1.63197 8.66665 1.3335 8.36817 1.3335 7.99998C1.3335 7.63179 1.63197 7.33331 2.00016 7.33331C2.36835 7.33331 2.66683 7.63179 2.66683 7.99998Z" fill="currentColor"></path><path d="M2.66683 12C2.66683 12.3682 2.36835 12.6666 2.00016 12.6666C1.63197 12.6666 1.3335 12.3682 1.3335 12C1.3335 11.6318 1.63197 11.3333 2.00016 11.3333C2.36835 11.3333 2.66683 11.6318 2.66683 12Z" fill="currentColor"></path></svg>